HIERARCHY
ROOT Hips
{
	OFFSET 0.00 0.00 0.00
	CHANNELS 6 Xposition Yposition Zposition Xrotation Yrotation Zrotation
	JOINT Spine
	{
		OFFSET 0.00000 1.72418 2.58627
		CHANNELS 3 Xrotation Yrotation Zrotation
		JOINT Spine1
		{
			OFFSET 0.00000 0.59880 3.39597
			CHANNELS 3 Xrotation Yrotation Zrotation
			JOINT Spine2
			{
				OFFSET 0.00000 0.30055 3.43524
				CHANNELS 3 Xrotation Yrotation Zrotation
				JOINT Spine3
				{
					OFFSET 0.00000 0.00000 3.44836
					CHANNELS 3 Xrotation Yrotation Zrotation
					JOINT Neck
					{
						OFFSET 0.00000 -1.29313 9.05195
						CHANNELS 3 Xrotation Yrotation Zrotation
						JOINT Head
						{
							OFFSET 0.00000 -0.82335 4.66946
							CHANNELS 3 Xrotation Yrotation Zrotation
							End Site
							{
								OFFSET 0.00000 0.00001 5.58203
							}
						}
					}
					JOINT RightShoulder
					{
						OFFSET -1.18828 -1.98046 6.41673
						CHANNELS 3 Xrotation Yrotation Zrotation
						JOINT RightArm
						{
							OFFSET -5.90180 0.00000 0.00000
							CHANNELS 3 Xrotation Yrotation Zrotation
							JOINT RightForeArm
							{
								OFFSET -11.45951 0.00000 0.00000
								CHANNELS 3 Xrotation Yrotation Zrotation
								JOINT RightHand
								{
									OFFSET -10.63451 0.00000 0.00000
									CHANNELS 3 Xrotation Yrotation Zrotation
									JOINT RightHandEnd
									{
										OFFSET -2.86944 0.00000 0.00000
										CHANNELS 3 Xrotation Yrotation Zrotation
										End Site
										{
											OFFSET -2.86944 0.00000 0.00000
										}
									}
									JOINT RightHandThumb1
									{
										OFFSET -1.14778 -1.91296 -0.76518
										CHANNELS 3 Yrotation Xrotation Zrotation
										End Site
										{
											OFFSET -2.77167 -0.74267 0.00000
										}
									}
								}
							}
						}
					}
					JOINT LeftShoulder
					{
						OFFSET 1.18828 -1.98046 6.41673
						CHANNELS 3 Xrotation Yrotation Zrotation
						JOINT LeftArm
						{
							OFFSET 5.90180 0.00000 0.00000
							CHANNELS 3 Xrotation Yrotation Zrotation
							JOINT LeftForeArm
							{
								OFFSET 11.45951 0.00000 0.00000
								CHANNELS 3 Xrotation Yrotation Zrotation
								JOINT LeftHand
								{
									OFFSET 10.63451 0.00000 0.00000
									CHANNELS 3 Xrotation Yrotation Zrotation
									JOINT LeftHandEnd
									{
										OFFSET 2.86944 0.00000 0.00000
										CHANNELS 3 Xrotation Yrotation Zrotation
										End Site
										{
											OFFSET 2.86944 0.00000 0.00000
										}
									}
									JOINT LeftHandThumb1
									{
										OFFSET 1.14778 -1.91296 -0.76518
										CHANNELS 3 Yrotation Xrotation Zrotation
										End Site
										{
											OFFSET 2.77167 -0.74267 0.00000
										}
									}
								}
							}
						}
					}
				}
			}
		}
	}
	JOINT RightUpLeg
	{
		OFFSET -3.52524 0.00000 -1.02984
		CHANNELS 3 Xrotation Yrotation Zrotation
		JOINT RightLeg
		{
			OFFSET 0.00001 0.00000 -17.80965
			CHANNELS 3 Xrotation Yrotation Zrotation
			JOINT RightFoot
			{
				OFFSET 0.00001 0.00000 -17.00908
				CHANNELS 3 Xrotation Yrotation Zrotation
				JOINT RightToeBase
				{
					OFFSET 0.00000 -5.55853 -2.02314
					CHANNELS 3 Xrotation Yrotation Zrotation
					End Site
					{
						OFFSET 0.00000 -2.85188 -0.00000
					}
				}
			}
		}
	}
	JOINT LeftUpLeg
	{
		OFFSET 3.52524 0.00000 -1.02984
		CHANNELS 3 Xrotation Yrotation Zrotation
		JOINT LeftLeg
		{
			OFFSET 0.00001 0.00000 -17.80965
			CHANNELS 3 Xrotation Yrotation Zrotation
			JOINT LeftFoot
			{
				OFFSET 0.00001 0.00000 -17.00908
				CHANNELS 3 Xrotation Yrotation Zrotation
				JOINT LeftToeBase
				{
					OFFSET 0.00000 -5.55853 -2.02314
					CHANNELS 3 Xrotation Yrotation Zrotation
					End Site
					{
						OFFSET 0.00000 -2.85188 -0.00000
					}
				}
			}
		}
	}
}
MOTION
Frames: 7
Frame Time: 0.008342
 4.3049 -99.6430 36.1147 -6.3294 3.9449 178.9057 1.0637 0.2942 -0.4918 0.5196 -0.1703 -0.0323 1.2986 0.6858 1.0504 -0.0157 0.4874 -0.1094 -2.4800 0.4502 -1.1563 -3.0592 0.2148 -3.5573 4.5868 4.5627 -1.1826 -18.8686 -3.8115 -2.9040 0.0000 0.0000 25.9924 -7.4388 16.3231 0.1351 0.0000 0.0000 0.0000 0.0000 -0.0000 -0.0000 11.0784 -1.9386 -0.5620 -22.0318 3.0640 8.2346 -0.0000 -0.0000 -26.7474 -7.1896 -19.1045 -2.6569 0.0000 -0.0000 -0.0000 -0.0000 0.0000 -0.0000 -11.8446 3.3557 -24.0001 23.1791 0.0000 0.0000 -20.7711 3.2981 -2.4917 0.0849 0.0000 0.0000 -6.9669 -0.4667 14.3737 14.4573 0.0000 0.0000 -14.2563 6.4803 1.5792 2.8285 0.0000 0.0000
 4.3084 -99.6652 36.1282 -6.3385 3.8376 178.8228 1.0205 0.1961 -0.4819 0.5091 -0.1838 -0.0342 1.2857 0.6623 1.0785 -0.0199 0.4901 -0.1015 -2.5352 0.4530 -1.1426 -3.1113 0.2146 -3.5273 4.5029 4.6530 -1.1688 -18.8187 -3.4430 -2.8147 0.0000 0.0000 25.8193 -7.3285 16.5177 0.0828 -0.0000 0.0000 0.0000 0.0000 -0.0000 0.0000 10.9952 -2.0113 -0.5372 -22.2309 2.7621 8.3062 -0.0000 -0.0000 -26.7784 -7.2169 -19.2300 -2.6533 0.0000 -0.0000 -0.0000 -0.0000 0.0000 0.0000 -11.7426 3.1662 -24.0072 22.8375 0.0000 0.0000 -20.5819 3.3450 -2.4268 0.1120 0.0000 0.0000 -6.9972 -0.5646 14.3221 14.4211 0.0000 0.0000 -14.1864 6.3795 1.6996 2.7984 0.0000 0.0000
 4.3124 -99.6924 36.1455 -6.3381 3.7122 178.7225 0.9724 0.0886 -0.4726 0.4964 -0.2015 -0.0373 1.2655 0.6265 1.1080 -0.0242 0.4912 -0.0905 -2.5954 0.4546 -1.1260 -3.1790 0.2175 -3.4851 4.3824 4.7853 -1.1460 -18.7423 -2.9865 -2.7074 0.0000 0.0000 25.5987 -7.1902 16.7713 0.0201 -0.0000 0.0000 -0.0000 -0.0000 -0.0000 -0.0000 10.8852 -2.1216 -0.5084 -22.4774 2.3904 8.4076 -0.0000 -0.0000 -26.8211 -7.2513 -19.3886 -2.6445 -0.0000 -0.0000 0.0000 -0.0000 0.0000 -0.0000 -11.6018 2.9559 -24.0752 22.4214 0.0000 0.0000 -20.3440 3.3674 -2.2856 0.1339 0.0000 0.0000 -7.0111 -0.6758 14.2689 14.3541 0.0000 0.0000 -14.0855 6.2617 1.8410 2.7646 0.0000 0.0000
 4.3165 -99.7241 36.1663 -6.3366 3.5774 178.6082 0.9101 -0.0207 -0.4641 0.4798 -0.2209 -0.0415 1.2408 0.5788 1.1374 -0.0287 0.4900 -0.0756 -2.6567 0.4526 -1.1085 -3.2610 0.2250 -3.4304 4.2226 4.9596 -1.1146 -18.6349 -2.4511 -2.5831 0.0000 0.0000 25.3303 -7.0345 17.0698 -0.0490 0.0000 -0.0000 -0.0000 -0.0000 -0.0000 0.0000 10.7503 -2.2723 -0.4782 -22.7624 1.9552 8.5325 -0.0000 -0.0000 -26.8685 -7.2865 -19.5708 -2.6273 0.0000 0.0000 0.0000 0.0000 0.0000 0.0000 -11.4369 2.7395 -24.2152 21.9471 0.0000 0.0000 -20.0648 3.3586 -2.0566 0.1469 0.0000 0.0000 -7.0144 -0.7917 14.2194 14.2523 0.0000 0.0000 -13.9520 6.1339 1.9966 2.7287 0.0000 0.0000
 4.3207 -99.7591 36.1898 -6.3292 3.4400 178.4872 0.8356 -0.1243 -0.4591 0.4637 -0.2397 -0.0453 1.2094 0.5194 1.1628 -0.0332 0.4842 -0.0592 -2.7137 0.4463 -1.0895 -3.3553 0.2367 -3.3630 4.0233 5.1752 -1.0724 -18.4913 -1.8518 -2.4429 0.0000 0.0000 25.0146 -6.8735 17.3957 -0.1188 0.0000 0.0000 0.0000 0.0000 -0.0000 -0.0000 10.5925 -2.4641 -0.4495 -23.0709 1.4667 8.6763 -0.0000 -0.0000 -26.9124 -7.3212 -19.7608 -2.6029 0.0000 0.0000 -0.0000 -0.0000 0.0000 0.0000 -11.2456 2.5293 -24.4433 21.4289 0.0000 0.0000 -19.7542 3.3134 -1.7285 0.1491 0.0000 0.0000 -6.9983 -0.9056 14.1767 14.1117 0.0000 0.0000 -13.7868 6.0052 2.1574 2.6918 0.0000 0.0000
 4.3248 -99.7960 36.2150 -6.3079 3.3087 178.3629 0.7596 -0.2111 -0.4556 0.4451 -0.2580 -0.0512 1.1728 0.4462 1.1833 -0.0373 0.4756 -0.0395 -2.7618 0.4339 -1.0728 -3.4568 0.2519 -3.2838 3.7878 5.4288 -1.0223 -18.3105 -1.2092 -2.2891 0.0000 0.0000 24.6565 -6.7175 17.7276 -0.1865 -0.0000 -0.0000 -0.0000 0.0000 -0.0000 -0.0000 10.4201 -2.6960 -0.4226 -23.3886 0.9402 8.8230 -0.0000 -0.0000 -26.9398 -7.3522 -19.9485 -2.5716 -0.0000 0.0000 0.0000 0.0000 0.0000 0.0000 -11.0262 2.3376 -24.7607 20.8866 0.0000 0.0000 -19.4250 3.2311 -1.3020 0.1382 0.0000 0.0000 -6.9491 -1.0099 14.1506 13.9265 0.0000 0.0000 -13.5913 5.8855 2.3103 2.6564 0.0000 0.0000
 4.3293 -99.8338 36.2410 -6.2802 3.1857 178.2442 0.6748 -0.2815 -0.4562 0.4268 -0.2734 -0.0543 1.1312 0.3647 1.1926 -0.0409 0.4625 -0.0167 -2.7966 0.4127 -1.0603 -3.5628 0.2700 -3.1946 3.5198 5.7117 -0.9648 -18.0932 -0.5434 -2.1271 0.0000 0.0000 24.2655 -6.5753 18.0487 -0.2494 0.0000 -0.0000 -0.0000 0.0000 -0.0000 -0.0000 10.2357 -2.9619 -0.4048 -23.6937 0.3846 8.9669 -0.0000 -0.0000 -26.9426 -7.3785 -20.1196 -2.5333 0.0000 -0.0000 -0.0000 0.0000 0.0000 0.0000 -10.7931 2.1678 -25.1656 20.3389 0.0000 0.0000 -19.0882 3.1153 -0.7866 0.1140 0.0000 0.0000 -6.8771 -1.1048 14.1431 13.7057 0.0000 0.0000 -13.3745 5.7833 2.4444 2.6249 0.0000 0.0000
